<?xml version="1.0" encoding="utf-8"?>
<!-- Generator: Adobe Illustrator 19.0.0, SVG Export Plug-In . SVG Version: 6.00 Build 0)  -->
<svg version="1.1" id="Layer_1" xmlns="http://www.w3.org/2000/svg" xmlns:xlink="http://www.w3.org/1999/xlink" x="0px" y="0px"
	 viewBox="0 0 1418.1 901" style="enable-background:new 0 0 1418.1 901;" xml:space="preserve">
<style type="text/css">
	.st0{fill:#FFFFFF;}
</style>
<symbol  id="New_Symbol" viewBox="-518.5 -198.2 1072 396.5">
	<g id="XMLID_451_">
		<path id="XMLID_452_" d="M553.5-75.7h-71.8V47.8c0,46.6-41.2,84.5-91.9,84.5H118.5v66h271.3c90.2,0,163.7-67.5,163.7-150.5V-75.7z
			"/>
	</g>
	<path id="XMLID_450_" class="st0" d="M517.6-75.7H118.5v241h281.6c64.9,0,117.5-52.6,117.5-117.5V-75.7z"/>
	<path id="XMLID_449_" d="M553.4-198.2H183.7c-36,0-65.2,29.2-65.2,65.2v57.3h434.9V-198.2z"/>
	<path id="XMLID_448_" d="M118.5-75.7h-520c-64.6,0-117,52.4-117,117v124h637V-75.7z"/>
	<g id="XMLID_399_">
		<g id="XMLID_649_">
			<g id="XMLID_655_">
				<path id="XMLID_675_" class="st0" d="M-353.9,123.3c-8-21-15.5-40.3-22.3-57.8c-2.9-7.5-5.8-15-8.8-22.4
					c-3-7.4-5.7-14.3-8.3-20.6c-2.6-6.4-4.9-11.9-6.9-16.6c-2-4.7-3.6-8-4.6-10c-2.2-4.2-4.9-7.1-7.9-8.7c-3-1.6-5.9-2.5-8.5-2.8
					c-3.3-0.4-6.5-0.1-9.7,1l-54.8,138c3.2,0.5,6.4,0.8,9.6,0.7c3.2-0.1,6.2-0.6,9-1.6c2.8-1,5.3-2.5,7.6-4.6
					c2.3-2.1,4.2-4.8,5.6-8.2c0.1-0.5,0.8-2.2,1.9-5.1c1.1-2.8,2.5-6.4,4.2-10.7c1.6-4.3,3.5-9.1,5.4-14.4c2-5.3,4-10.7,6.1-16.1
					c4.9-12.8,10.4-27.2,16.6-43.1c6.1,15.9,11.5,30.2,16.4,43.1c2.1,5.4,4.2,10.8,6.1,16.1c2,5.3,3.8,10.1,5.4,14.4
					c1.6,4.3,3,7.9,4.2,10.7c1.1,2.8,1.8,4.5,2.1,5.1c1.4,3.4,3.3,6.2,5.6,8.2c2.3,2,4.8,3.6,7.6,4.6c2.8,1,5.7,1.5,8.9,1.6
					C-360.2,124.1-357,123.9-353.9,123.3z"/>
				<path id="XMLID_668_" class="st0" d="M-351.9,36c3.6,2.2,7.6,3.9,12.1,5.1c4.5,1.1,9.2,1.7,14,1.7c6.9,0,13.4-1,19.6-3
					c-0.4,4.1-1.3,7.7-2.6,10.9c-1.7,4.1-4.3,7.1-7.7,8.9c-1.3,0.7-2.7,1.2-4.2,1.5c-1.5,0.3-3.3,0.5-5.2,0.5h-2.2
					c-1.8-0.1-3.7-0.4-5.5-0.9c-1.8-0.5-3.7-1-5.5-1.7c-1.8-0.7-3.7-1.2-5.5-1.7c-1.8-0.5-3.6-0.7-5.3-0.7c-1.8,0-3.6,0.4-5.3,1.2
					c-1.6,0.9-3,2.4-4.2,4.6l-0.4,0.8l0.4,0.6c4,4.2,8.6,7.6,13.9,10.2c5.3,2.6,11.2,4.1,17.5,4.5c0.7,0.1,1.2,0.2,1.7,0.2
					c0.5,0,1,0,1.7,0c6.1,0,11.6-1.1,16.6-3.3c5-2.2,9.4-5.2,13-9c7.5-8.2,11.4-19,11.7-32.4v-1.6c0-13.8-3.5-24.9-10.5-33.6
					c-3.4-4.2-7.5-7.7-12.4-10.3c-4.8-2.6-10.2-4.3-16.1-5c-0.8-0.1-1.6-0.2-2.4-0.2c-0.8,0-1.7,0-2.6,0c-2.8,0-5.7,0.2-8.7,0.7
					c-3,0.5-6,1.4-8.9,2.7c-3,1.2-5.8,2.7-8.3,4.7c-2.5,1.9-4.6,4.4-6.3,7.4c-2.5,3.8-3.8,8.5-4,14.1v1.2c0,5.2,1.1,9.5,3.2,12.9
					C-358.6,30.5-355.7,33.5-351.9,36z M-311,26.5c-1.7,0.3-3.7,0.5-5.8,0.8c-2.2,0.3-4.4,0.4-6.6,0.4c-1.8,0-3.6-0.1-5.3-0.3
					c-1.7-0.2-3.3-0.6-4.7-1.1c-3.3-1.1-5.8-2.7-7.5-5c-0.7-0.8-1.2-1.7-1.6-2.7c-0.4-1-0.7-2.1-0.8-3.3c-0.1-0.4-0.2-1-0.2-1.8
					c0-1.3,0.2-2.7,0.6-4.3c0.4-1.5,1.2-2.9,2.4-4.3c1.1-1.3,2.6-2.5,4.6-3.4c2-0.9,4.8-1.4,8.2-1.4c1.1,0,1.8,0.1,2.4,0.2
					c3.7,0.1,6.9,1.2,9.7,3.2c1.3,0.8,2.4,1.8,3.4,2.9c0.9,1.1,1.7,2.3,2.4,3.7c1.4,2.5,2.4,5.1,3,7.7c0.5,2.6,0.8,5.1,0.8,7.3
					c-0.1,0-0.2,0-0.3,0.1c-0.1,0.1-0.2,0.1-0.3,0.1c-0.5,0.1-1.1,0.3-1.8,0.4C-309.3,26-310.1,26.2-311,26.5z"/>
				<path id="XMLID_666_" class="st0" d="M-268.7,33.2c0,8.9,1.3,16.1,3.9,21.7c2.6,5.6,5.9,10,10,13.2c4.1,3.2,8.7,5.3,13.7,6.5
					c5.1,1.1,10.1,1.7,15.1,1.7h9.7c0.7-2.8,0.8-5.4,0.4-7.7c-0.3-2-1.2-3.9-2.7-5.8c-1.5-1.9-4-3-7.4-3.4c-2.2-0.3-4.4-0.8-6.6-1.5
					c-2.2-0.7-4.1-2-5.8-3.8c-1.7-1.8-3.1-4.3-4.3-7.6c-1.1-3.3-1.7-7.7-1.7-13.3V4.4c0-4,0-7.2,0.1-9.6c0.1-2.5,0.2-4.4,0.3-5.9
					c0.1-1.6,0.3-2.8,0.4-3.6c-8,0-14.2,1.7-18.6,5.1c-4.3,3.4-6.5,9-6.5,17V33.2z"/>
				<path id="XMLID_663_" class="st0" d="M-181.1,105.7c-2.8-4.6-6.6-6.9-11.5-6.9c-2.1,0-4.1,0.5-5.9,1.4c-2,1.2-3.5,2.7-4.5,4.7
					c-1.1,1.9-1.6,4-1.6,6.3c0,2.5,0.6,4.8,1.8,6.7c1.2,2.2,2.8,4,4.9,5.3c2.1,1.3,4.3,1.9,6.5,1.9c2,0,3.9-0.5,5.7-1.6
					c2.1-1.1,3.7-2.6,4.7-4.6c1.1-2,1.6-4.1,1.6-6.4C-179.3,110-179.9,107.8-181.1,105.7z M-165.7,3.2c-0.7-0.9-1.8-1.7-3.4-2.3
					c-1.6-0.6-3.2-0.8-4.7-0.5c-1.6,0.3-3,1.1-4.2,2.5c-1.2,1.4-1.8,3.7-1.8,6.8v47.4c0,4,0,7.2,0.1,9.6c0.1,2.4,0.2,4.4,0.3,5.9
					c0.1,1.6,0.3,2.8,0.4,3.8c-8.2,0-14.4-1.7-18.6-5.2c-4.2-3.4-6.3-9.1-6.3-17.1L-204,7.4c0-3.3,0.5-6.5,1.5-9.5
					c1-3,2.5-5.7,4.5-7.9c2-2.3,4.6-4,7.6-5.3c3-1.3,6.6-1.7,10.7-1.3c4.2,0.3,7.3,1.5,9.3,3.7c2,2.2,3.3,4.5,4,6.8
					C-165.7-3.3-165.4-0.2-165.7,3.2z"/>
				<path id="XMLID_660_" class="st0" d="M-82.1,4.6c1.6-0.9,3.1-2.5,4.5-4.8l0.6-0.6l-0.6-0.6C-81.9-6.1-87-9.8-93-12.5
					c-6-2.7-12.5-4.1-19.5-4.1c-6.1,0-11.8,1.2-17.1,3.7s-10.1,5.9-14.1,10.2c-4,4.2-7.1,9.2-9.4,15c-2.3,5.8-3.5,11.9-3.5,18.6
					c0,6.6,1,12.8,3.1,18.6c2,5.8,5,10.8,8.8,15.2c3.8,4.2,8.5,7.6,13.9,10.1c5.5,2.5,11.6,3.8,18.3,3.8c3.7,0,7.7-0.6,12.2-1.7
					c4.4-1.1,8.5-2.9,12.4-5.4c3.8-2.5,7-5.7,9.5-9.6c2.5-4,3.8-8.7,3.8-14.3c0-5.4-1.4-9.8-4.2-13.2c-2.8-3.4-6.1-6-9.9-7.9
					c-3.8-1.9-7.9-3.2-12.2-4c-4.3-0.7-8-1.1-11.2-1.1c-4.9,0-9.1,0.3-12.8,0.9c-3.6,0.6-6.1,1-7.4,1.3c0.5-4.8,1.6-8.6,3.2-11.6
					c1.6-3,3.4-5.3,5.3-7c2-1.7,4-2.9,5.9-3.5c2-0.6,3.8-0.9,5.3-0.9c2.8,0,5.4,0.3,7.9,0.8c2.5,0.5,4.7,1.1,6.7,1.8
					c2,0.7,3.9,1.3,5.6,2c1.8,0.7,3.5,1,5.2,1C-85.2,6-83.5,5.5-82.1,4.6z M-112.5,61.6c-1.5-0.1-3.2-0.5-5.1-1.1
					c-2-0.6-3.9-1.7-5.8-3.3c-1.9-1.6-3.7-3.8-5.2-6.7c-1.6-2.9-2.7-6.6-3.4-11.1c2.1-0.7,5.1-1.3,9-1.9c3.9-0.6,7.8-0.7,11.7-0.3
					c3.9,0.4,7.3,1.5,10.3,3.4c3,1.9,4.6,5,4.8,9.3c0.3,3.3-1,6.2-3.9,8.5C-103,60.8-107.1,61.9-112.5,61.6z"/>
				<path id="XMLID_658_" class="st0" d="M-5.3,2.8c0-0.4,0.1-0.9,0.2-1.4c0.3-1.1,0.4-2.1,0.4-3c0-2.4-0.5-4.5-1.6-6.5
					c-1.1-1.9-2.5-3.5-4.3-4.9c-3.7-2.6-8.2-4-13.4-4c-4.3,0-8.6,1-12.8,3c-4.2,2-8,5-11.5,8.9c-3.4,4-6.2,8.9-8.2,14.8
					c-2,5.9-3.1,12.8-3.1,20.7l0.2,57.4c0,7.9,2.1,13.6,6.3,17.1c4.2,3.4,10.3,5.2,18.4,5.2c-0.1-0.9-0.3-2.2-0.4-3.8
					c-0.1-1.5-0.2-3.4-0.3-5.9c-0.1-2.5-0.1-5.7-0.1-9.6l0.2-12.5h26.5c0-6-1.7-10.7-4.9-14.3c-3.3-3.6-8-5.4-14-5.4h-7.5l-0.2-28.2
					c0-5.6,0.5-10.2,1.5-14c1-3.8,2.3-6.8,4.1-9.2c3.6-4.5,8.2-6.8,13.8-6.8c2.4,0,4.7,0.3,7.1,1C-7.8,2-6.5,2.4-5.3,2.8z"/>
				<path id="XMLID_656_" class="st0" d="M63.4,66c1.7,4.2,4.2,7.1,7.3,8.6c3.2,1.5,6.3,2.4,9.3,2.7c3.6,0.3,7.3-0.1,11.3-1
					c-8.4-20.4-16-38.6-22.7-54.8C65.7,14.6,62.8,7.8,60,1.1c-2.8-6.7-5.4-12.8-7.6-18.3c-2.2-5.4-4.1-9.9-5.6-13.5
					c-1.5-3.6-2.4-5.6-2.7-6.2c-1.8-4.2-4.3-7.1-7.3-8.7c-3-1.6-6.1-2.5-9.1-2.8c-3.6-0.4-7.3,0-11.3,1.2c1.6,3.7,3.3,7.7,5.1,12.1
					c1.6,3.8,3.4,8.2,5.4,13.2c2,5,4.3,10.2,6.6,15.8c-0.4,0.9-1.2,2.8-2.5,5.8c-1.3,2.9-2.7,6.4-4.3,10.5
					c-1.6,4.1-3.5,8.6-5.5,13.4c-2,4.8-4.1,9.7-6,14.6c-4.7,11.5-10.1,24.2-16,38.1c4,0.9,7.7,1.3,11.3,1c3-0.3,6.1-1.2,9.2-2.7
					c3.1-1.5,5.6-4.4,7.4-8.6c0.3-0.7,1-2.4,2.1-5.1c1.1-2.7,2.5-6.1,4.2-10.2c1.6-4.1,3.5-8.6,5.6-13.6c2.1-5,4.2-10,6.3-15
					c2.4,5.6,4.6,10.9,6.7,15.9c2.1,5,4,9.5,5.6,13.5c1.6,4,3,7.2,4,9.8C62.6,63.9,63.2,65.4,63.4,66z"/>
			</g>
			<path id="XMLID_653_" d="M276.6,4.6c0-4,0-7.2,0.1-9.7c0.1-2.5,0.2-4.5,0.3-6c0.1-1.6,0.3-2.8,0.4-3.6c-8,0-14.2,1.7-18.6,5.1
				c-4.3,3.4-6.5,9-6.5,17l1.2,92.7c-3.7-10.7-7.3-20.7-10.7-30c-1.5-4-2.9-8-4.4-12.2c-1.5-4.2-3-8.1-4.3-11.8
				c-1.4-3.7-2.7-7.1-3.9-10.2c-1.2-3.1-2.2-5.7-3.2-7.6c-2-4.4-4.5-7.4-7.5-9c-3-1.7-5.9-2.6-8.7-2.9c-3.3-0.3-6.7,0.2-10.1,1.4
				l-30.4,82.4L171,4.6c0-4,0-7.2,0.1-9.7c0.1-2.5,0.2-4.5,0.3-6c0.1-1.6,0.3-2.8,0.4-3.6c-8.2,0-14.4,1.7-18.7,5.1
				c-4.3,3.4-6.4,9-6.4,17v114.4l0.8,0.4c0.8,0.1,1.7,0.3,2.8,0.6c0.9,0.1,1.9,0.3,3.1,0.4c1.1,0.1,2.4,0.2,3.9,0.2
				c4.2,0,8.2-0.5,11.9-1.6c3.7-1.1,7.1-2.8,10.4-5.3c3.2-2.5,6.2-5.8,9-9.9c2.8-4.2,5.3-9.4,7.7-15.6c0.1-0.5,0.5-1.6,1.1-3.2
				c0.6-1.6,1.3-3.5,2.1-5.8c0.8-2.3,1.6-4.7,2.6-7.3c0.9-2.6,1.8-5.4,2.8-8.1c2.2-6.4,4.7-13.4,7.3-21.2L227.5,91
				c2.4,6.2,4.9,11.4,7.7,15.6c2.8,4.2,5.8,7.5,9,9.9c3.2,2.4,6.7,4.2,10.4,5.3c3.7,1.1,7.6,1.6,11.9,1.6c1.4,0,2.7-0.1,3.9-0.2
				c1.1-0.1,2.1-0.3,3.1-0.4c1.1-0.3,2-0.5,2.8-0.6l0.8-0.4L276.6,4.6z"/>
			<path id="XMLID_650_" d="M318.7,105.7c-2.8-4.6-6.6-6.9-11.5-6.9c-2.1,0-4.1,0.5-5.9,1.4c-2,1.2-3.5,2.7-4.5,4.7
				c-1.1,1.9-1.6,4-1.6,6.3c0,2.5,0.6,4.8,1.8,6.7c1.2,2.2,2.8,4,4.9,5.3c2.1,1.3,4.3,1.9,6.5,1.9c2,0,3.9-0.5,5.7-1.6
				c2.1-1.1,3.7-2.6,4.7-4.6c1.1-2,1.6-4.1,1.6-6.4C320.4,110,319.9,107.8,318.7,105.7z M334.1,3.2c-0.7-0.9-1.8-1.7-3.4-2.3
				c-1.6-0.6-3.2-0.8-4.7-0.5c-1.6,0.3-3,1.1-4.2,2.5c-1.2,1.4-1.8,3.7-1.8,6.8v47.4c0,4,0,7.2,0.1,9.6c0.1,2.4,0.2,4.4,0.3,5.9
				c0.1,1.6,0.3,2.8,0.4,3.8c-8.2,0-14.4-1.7-18.6-5.2c-4.2-3.4-6.3-9.1-6.3-17.1l-0.2-46.9c0-3.3,0.5-6.5,1.5-9.5
				c1-3,2.5-5.7,4.5-7.9c2-2.3,4.6-4,7.6-5.3c3-1.3,6.6-1.7,10.7-1.3c4.2,0.3,7.3,1.5,9.3,3.7s3.3,4.5,4,6.8
				C334.1-3.3,334.4-0.2,334.1,3.2z"/>
		</g>
	</g>
	<g id="XMLID_320_">
		<path id="XMLID_397_" class="st0" d="M172-146c0.1,1.1-0.2,2.1-1,2.8c-0.8,0.8-1.9,1.5-3.3,2.2c-1.4,0.7-3.1,1.5-5.1,2.3
			c-1.9,0.8-4,1.9-6.1,3.2c-1.6,0.9-2.9,2-4,3.4c-1,1.3-1.8,2.7-2.2,4.2c-0.5,1.5-0.7,3-0.6,4.6c0.1,1.6,0.4,3.1,1.1,4.7
			c0.7,1.5,1.5,2.7,2.6,3.7c1.1,1,2.3,1.8,3.6,2.5c1.3,0.6,2.6,1.1,4,1.3c1.3,0.3,2.6,0.4,3.7,0.4h1.2c3.5-0.2,6.8-1.1,9.7-2.6
			c2.9-1.5,5.4-3.6,7.5-6.1l0.3-0.3l-0.3-0.4c-0.7-0.9-1.4-1.6-2.2-2.1c-0.7-0.5-1.6-0.7-2.5-0.7c-0.9,0-1.8,0.2-2.7,0.5
			c-0.9,0.4-1.8,0.8-2.8,1.2c-1.3,0.5-2.4,1-3.6,1.3c-1.1,0.4-2.2,0.5-3.4,0.5c-1.5,0-2.6-0.3-3.3-1c-0.7-0.6-1.2-1.4-1.3-2.2
			c-0.1-1.3,0.3-2.3,1.2-3.2c0.9-0.8,2.3-1.6,4.1-2.4c2.1-0.9,4.3-1.8,6.6-2.8c2.3-1,4.4-2.3,6.2-3.8c1.8-1.5,3.2-3.3,4.1-5.4
			c0.9-2.1,1-4.6,0.3-7.7c-0.3-1.2-0.9-2.4-1.7-3.7c-0.8-1.3-1.9-2.5-3.4-3.6c-1.4-1.1-3.2-2-5.2-2.7c-2-0.7-4.4-1-7.2-1
			c-0.5,0-1,0-1.3,0.1c-3.2,0.1-6.4,1-9.5,2.5c-3.1,1.5-5.7,3.6-7.8,6.1l-0.3,0.3l0.3,0.4c0.3,0.5,0.7,1,1.1,1.3
			c0.4,0.3,0.8,0.6,1.1,0.9c0.8,0.4,1.6,0.6,2.4,0.6c0.9,0,1.8-0.2,2.7-0.5c0.9-0.4,1.8-0.8,2.8-1.2c0.9-0.5,2-0.9,3.2-1.2
			c1.2-0.3,2.5-0.6,3.9-0.7c2.4,0,4.1,0.5,5.1,1.4C171.3-147.9,171.8-147,172-146z"/>
		<path id="XMLID_395_" class="st0" d="M234.9-148c0-2,0-3.6,0-4.9c0-1.3,0.1-2.3,0.2-3c0.1-0.8,0.1-1.4,0.2-1.8
			c-4.1,0-7.3,0.9-9.5,2.6c-2.2,1.7-3.3,4.6-3.3,8.5l-0.1,14.1c0,2.8-0.3,5.1-0.9,6.8c-0.6,1.7-1.3,3-2.2,4c-0.9,1-1.9,1.6-3,2
			c-1.1,0.3-2.2,0.5-3.4,0.5c-1.1,0-2.3-0.2-3.4-0.5c-1.1-0.3-2.1-1-3-2c-0.9-1-1.6-2.3-2.2-4c-0.5-1.7-0.8-4-0.8-6.8V-148
			c0-2,0-3.6,0.1-4.9c0-1.3,0.1-2.3,0.1-3c0.1-0.8,0.1-1.4,0.2-1.8c-4.1,0-7.3,0.9-9.5,2.6c-2.2,1.7-3.3,4.6-3.3,8.5l0.1,47.3
			c0,4,1,6.9,3.1,8.6c2.1,1.7,5.2,2.6,9.3,2.6c-0.1-0.4-0.1-1-0.2-1.8c-0.1-0.7-0.1-1.7-0.2-3c0-1.3,0-2.9,0-4.9v-14.3
			c1.5,0.5,3.1,0.9,4.8,1.1c1.6,0.2,3.2,0.3,4.8,0.3c2.6,0,5.2-0.3,7.8-0.9c2.6-0.6,5-1.7,7.1-3.3c2.1-1.6,3.8-3.8,5.1-6.7
			c1.3-2.8,2-6.5,2-11V-148z"/>
		<path id="XMLID_364_" class="st0" d="M280.9-117.9c2.1-2.1,3.7-4.7,4.9-7.6c1.2-2.9,1.8-6,1.8-9.4c0-3.3-0.5-6.5-1.6-9.4
			s-2.6-5.4-4.5-7.6c-1.9-2.2-4.3-3.9-7.1-5.2c-2.8-1.3-5.9-1.9-9.3-1.9c-3.1,0-6,0.6-8.7,1.9c-2.7,1.3-5.1,3-7.2,5.2
			c-2,2.1-3.6,4.7-4.8,7.6c-1.2,2.9-1.8,6-1.8,9.4c0,3.3,0.5,6.5,1.5,9.4c1,2.9,2.5,5.4,4.5,7.6c1.9,2.2,4.3,3.9,7.1,5.2
			c2.8,1.3,5.9,1.9,9.3,1.9c3.1,0,6.1-0.6,8.8-1.9C276.5-114,278.9-115.7,280.9-117.9z M265.1-150.2c0.9,0,1.9,0.2,3.1,0.6
			c1.2,0.4,2.3,1.2,3.4,2.3c1.1,1.1,2,2.7,2.7,4.7c0.7,2,1.1,4.6,1.1,7.8c0,3.2-0.4,5.8-1.1,7.9c-0.7,2-1.6,3.6-2.7,4.7
			c-1.1,1.1-2.2,1.9-3.4,2.2c-1.2,0.4-2.2,0.6-3.1,0.6c-0.9,0-1.9-0.2-3.1-0.6c-1.2-0.4-2.3-1.2-3.4-2.2c-1.1-1.1-2-2.7-2.7-4.7
			c-0.7-2-1.1-4.7-1.1-7.9c0-3.2,0.4-5.8,1.1-7.8c0.7-2,1.6-3.6,2.7-4.7c1.1-1.1,2.2-1.9,3.4-2.3S264.2-150.2,265.1-150.2z"/>
		<path id="XMLID_361_" class="st0" d="M295-134.8c0,3.3,0.6,6.5,1.8,9.4c1.2,2.9,2.8,5.4,4.8,7.6c2,2.2,4.4,3.9,7.1,5.2
			c2.7,1.3,5.6,1.9,8.8,1.9c3.4,0,6.5-0.6,9.3-1.9c2.8-1.3,5.1-3,7.1-5.2c1.9-2.1,3.4-4.7,4.5-7.6c1.1-2.9,1.6-6,1.6-9.4
			c0-3.3-0.6-6.5-1.8-9.4s-2.8-5.4-4.9-7.6c-2-2.2-4.4-3.9-7.1-5.2c-2.7-1.3-5.6-1.9-8.8-1.9c-3.8,0-7.2,0.8-10.1,2.3l0.1-15.2
			c0-2,0-3.6,0.1-4.9c0-1.3,0.1-2.3,0.1-3c0.1-0.8,0.1-1.4,0.2-1.8c-4.1,0-7.3,0.9-9.5,2.6c-2.2,1.7-3.3,4.6-3.3,8.6V-134.8z
			 M317.3-150.2c0.9,0,1.9,0.2,3,0.6c1.2,0.4,2.3,1.2,3.4,2.3c1.1,1.1,2,2.7,2.7,4.7c0.7,2,1.1,4.7,1.1,7.9c0,3.2-0.4,5.8-1.1,7.8
			c-0.7,2-1.6,3.6-2.7,4.7c-1.1,1.1-2.2,1.9-3.4,2.2c-1.2,0.4-2.2,0.6-3,0.6c-0.9,0-1.9-0.2-3.1-0.6c-1.2-0.4-2.3-1.2-3.4-2.2
			c-1.1-1.1-2-2.7-2.7-4.7c-0.7-2-1.1-4.6-1.1-7.8c0-3.2,0.4-5.8,1.1-7.9c0.7-2,1.6-3.6,2.7-4.7c1.1-1.1,2.2-1.9,3.4-2.3
			C315.4-150,316.4-150.2,317.3-150.2z"/>
		<path id="XMLID_358_" class="st0" d="M347.2-134.8c0,3.3,0.6,6.5,1.8,9.4c1.2,2.9,2.8,5.4,4.8,7.6c2,2.2,4.4,3.9,7.1,5.2
			c2.7,1.3,5.6,1.9,8.8,1.9c3.4,0,6.5-0.6,9.3-1.9c2.8-1.3,5.1-3,7.1-5.2c1.9-2.1,3.4-4.7,4.5-7.6c1.1-2.9,1.6-6,1.6-9.4
			c0-3.3-0.6-6.5-1.8-9.4c-1.2-2.9-2.8-5.4-4.9-7.6c-2-2.2-4.4-3.9-7.1-5.2c-2.7-1.3-5.6-1.9-8.8-1.9c-3.8,0-7.2,0.8-10.1,2.3
			l0.1-15.2c0-2,0-3.6,0.1-4.9c0-1.3,0.1-2.3,0.1-3c0.1-0.8,0.1-1.4,0.2-1.8c-4.1,0-7.3,0.9-9.5,2.6c-2.2,1.7-3.3,4.6-3.3,8.6
			V-134.8z M369.5-150.2c0.9,0,1.9,0.2,3,0.6s2.3,1.2,3.4,2.3c1.1,1.1,2,2.7,2.7,4.7c0.7,2,1.1,4.7,1.1,7.9c0,3.2-0.4,5.8-1.1,7.8
			c-0.7,2-1.6,3.6-2.7,4.7c-1.1,1.1-2.2,1.9-3.4,2.2c-1.2,0.4-2.2,0.6-3,0.6c-0.9,0-1.9-0.2-3.1-0.6c-1.2-0.4-2.3-1.2-3.4-2.2
			c-1.1-1.1-2-2.7-2.7-4.7c-0.7-2-1.1-4.6-1.1-7.8c0-3.2,0.4-5.8,1.1-7.9c0.7-2,1.6-3.6,2.7-4.7c1.1-1.1,2.2-1.9,3.4-2.3
			C367.6-150,368.6-150.2,369.5-150.2z"/>
		<path id="XMLID_355_" class="st0" d="M411.8-97.1c-1.4-2.3-3.3-3.5-5.8-3.5c-1.1,0-2.1,0.2-3,0.7c-1,0.6-1.8,1.4-2.3,2.3
			c-0.5,1-0.8,2-0.8,3.2c0,1.3,0.3,2.4,0.9,3.4c0.6,1.1,1.4,2,2.5,2.7c1.1,0.6,2.2,1,3.3,1c1,0,2-0.3,2.9-0.8
			c1.1-0.5,1.9-1.3,2.4-2.3c0.5-1,0.8-2.1,0.8-3.2C412.7-94.9,412.4-96.1,411.8-97.1z M419.6-148.7c-0.3-0.5-0.9-0.8-1.7-1.2
			c-0.8-0.3-1.6-0.4-2.4-0.3c-0.8,0.1-1.5,0.6-2.1,1.3c-0.6,0.7-0.9,1.9-0.9,3.5v23.9c0,2,0,3.6,0.1,4.9c0,1.2,0.1,2.2,0.2,3
			c0.1,0.8,0.1,1.4,0.2,1.9c-4.1,0-7.3-0.9-9.4-2.6c-2.1-1.7-3.2-4.6-3.2-8.6l-0.1-23.6c0-1.7,0.2-3.3,0.7-4.8
			c0.5-1.5,1.3-2.9,2.3-4c1-1.1,2.3-2,3.9-2.7c1.5-0.6,3.3-0.9,5.4-0.6c2.1,0.1,3.7,0.7,4.7,1.9c1,1.1,1.7,2.2,2,3.5
			C419.6-152,419.7-150.5,419.6-148.7z"/>
		<path id="XMLID_325_" class="st0" d="M424.8-132.5c0,4.5,0.6,8.1,2,11c1.3,2.8,3,5.1,5,6.7c2,1.6,4.3,2.7,6.9,3.3
			c2.6,0.6,5.1,0.9,7.8,0.9c2.5,0,5.1-0.3,7.7-0.9c2.6-0.6,5-1.7,7.1-3.3c2.1-1.6,3.8-3.8,5.1-6.7c1.3-2.8,2-6.5,2-11l0.4-25.2
			c-4.1,0-7.2,0.9-9.4,2.6c-2.2,1.7-3.3,4.6-3.3,8.5l0.1,14.1c0,2.8-0.3,5.1-0.9,6.8c-0.6,1.7-1.3,3-2.2,4c-0.9,1-2,1.6-3.1,2
			c-1.1,0.3-2.3,0.5-3.4,0.5c-1.1,0-2.3-0.2-3.4-0.5c-1.1-0.3-2.1-1-3-2c-0.9-1-1.6-2.3-2.2-4c-0.6-1.7-0.9-4-0.9-6.8V-148
			c0.1-2,0.1-3.6,0.2-4.9c0-1.3,0.1-2.3,0.2-3c0.1-0.8,0.1-1.4,0.2-1.8c-4.1,0-7.3,0.9-9.5,2.6c-2.2,1.7-3.3,4.6-3.3,8.5
			L424.8-132.5z"/>
		<path id="XMLID_321_" class="st0" d="M487.5-156.5c3,0.9,6.2,1.6,9.7,2c3.5,0.4,6.7,0.2,9.7-0.5c3-0.7,5.4-2.1,7.4-4.2
			c1.9-2.1,2.9-5,2.9-8.9c0-2.9-0.6-5.4-1.9-7.5c-1.1-1.9-2.7-3.6-4.7-5c-1.9-1.3-4-2.2-6.1-2.7c-2.1-0.5-4.1-0.8-5.9-0.8h-0.9
			c-3.1,0.1-5.9,0.8-8.4,2c-2.5,1.2-4.8,2.8-6.7,4.9c-1.9,2.1-3.4,4.6-4.4,7.5c-1.1,2.8-1.7,6.1-1.9,9.7c-0.1,0.3-0.1,0.5-0.1,0.8
			c0,0.3,0,0.5,0,0.8c0,3.8,0.7,7.2,2,10.3c1.3,3.1,3.2,5.6,5.6,7.6c-2.1,1.6-3.8,3.6-5.1,5.9c-1.2,2.3-1.9,4.8-1.9,7.5
			c0,2.5,0.5,4.8,1.6,6.9c1.1,2.1,2.5,4,4.4,5.5c1.9,1.6,4,2.9,6.5,3.8c2.5,0.9,5.1,1.3,7.9,1.3c3.1,0,6-0.4,8.5-1.3
			c2.5-0.9,4.6-2.2,6.4-3.8c3.7-3.2,5.6-7.3,5.6-12.4c0-2.3-0.5-4.6-1.5-6.7c-1-2.1-2.5-4-4.3-5.5c-1.7-1.5-3.7-2.8-6-3.7
			c-2.3-0.9-4.8-1.4-7.4-1.5v-0.1h-0.6c-2.2,0-4-0.4-5.3-1.1c-1.3-0.7-2.4-1.6-3.1-2.9c-0.7-1.1-1.2-2.4-1.5-4
			C487.6-154.4,487.5-155.7,487.5-156.5z M505.6-173.2c0.7,0.7,1.1,1.4,1.3,2.1c0.2,0.8,0.3,1.5,0.3,2.3c0,0.7,0,1.1-0.1,1.3
			c-0.2,0.9-0.6,1.8-1.1,2.6c-0.5,0.6-1.1,1.1-2,1.6c-0.9,0.4-1.8,0.7-2.8,0.9c-1,0.2-2,0.3-3.1,0.3c-1.1,0-2.1-0.1-3.2-0.2
			c-1.1-0.1-2.1-0.3-3-0.5c-0.9-0.2-1.8-0.3-2.5-0.5c-0.7-0.2-1.2-0.3-1.5-0.4c0.1-0.8,0.3-1.7,0.5-2.6c0.2-0.9,0.5-1.9,0.9-2.8
			c0.5-1.1,1-2,1.7-2.9c0.7-0.9,1.5-1.6,2.5-2.2c1.4-0.9,3.1-1.3,5-1.3c1.9,0,3.5,0.2,4.6,0.7C504.2-174.5,505-173.9,505.6-173.2z
			 M497.2-118.3c-0.6,0-1.3-0.1-2.2-0.4c-0.9-0.2-1.7-0.7-2.4-1.4c-0.8-0.7-1.4-1.6-2-2.8c-0.5-1.2-0.8-2.7-0.8-4.6s0.3-3.4,0.8-4.5
			c0.5-1.2,1.2-2.1,2-2.7c0.8-0.6,1.6-1.1,2.4-1.3c0.9-0.2,1.6-0.4,2.2-0.4c0.7,0,1.4,0.1,2.3,0.4c0.9,0.2,1.7,0.7,2.4,1.3
			c0.8,0.6,1.4,1.5,2,2.7c0.5,1.2,0.8,2.7,0.8,4.5s-0.3,3.4-0.8,4.6c-0.5,1.2-1.2,2.1-2,2.8c-0.8,0.7-1.6,1.1-2.4,1.4
			C498.6-118.4,497.9-118.3,497.2-118.3z"/>
	</g>
	<g id="XMLID_314_">
		<path id="XMLID_317_" d="M445.7,21.6c-1.5,1.4-4.6,1.7-6.4,0.8c-1.7-0.9-3.8-2.8-3.8-5V1.9h-3.8c-5.6,0-10.3,5-12.8,9.5
			l-26.2,46.9c-6.2,11.1-16.8,17.6-28.3,17.6h-33.9v-23h33.9c6.5,0,10.5-1.7,12.8-5.9l26.2-46.7c6-10.8,16.6-17.4,28.3-17.4h3.8
			v-10.7c0-2.2,2.1-4.1,3.8-5c0.7-0.4,1.9-0.5,2.7-0.5c1.3,0,2.6,0.5,3.5,1.3l24.4,22.6c1.2,1.1,1.8,2.6,1.8,4.2
			c0,1.6-0.6,3.2-1.7,4.2L445.7,21.6z"/>
		<path id="XMLID_316_" d="M418.8,47.2l0-0.2c2.3,4.2,6.3,5.9,12.8,5.9h3.8v-8.3c0-2.2,2.1-4.1,3.8-5c0.7-0.4,1.9-0.5,2.7-0.5
			c1.3,0,2.6,0.5,3.5,1.3L469.8,63c1.2,1.1,1.8,2.6,1.8,4.2c0,1.6-0.6,3.2-1.7,4.2L445.7,94c-1.5,1.4-4.6,1.7-6.4,0.8
			c-1.7-0.9-3.8-2.8-3.8-5V75.9h-3.8c-11.8,0-22.3-6.2-28.3-16.8l-1.8-2.8l10.6-19.9L418.8,47.2z"/>
		<path id="XMLID_315_" d="M377.2,11.4c-2.5-4.5-7.2-9.5-12.8-9.5h-18.4l0.5-1.1c0-0.1,3-8.5-5.7-16l-2-1.9h25.6
			c11.2,0,22,7.2,28.3,18.5l1.7,3.6l-10.7,18.6L377.2,11.4z"/>
	</g>
</symbol>
<g id="XMLID_671_">
	<path id="XMLID_674_" class="st0" d="M1266.4,516.1c-8.7-9.7-30.4-12.2-41.3-5.5c-10.1,6.4-26.1,19.6-26.1,34.9V623h-14.9
		c-33,0-60.4-19.3-75.1-50.7L955.8,245.9C919.7,168.3,857.8,125,790.3,125H0v155h790.3c38.2,0,61.4,20.2,75.1,49.7l153.1,327.9
		c35.4,75.9,97.3,122.4,165.5,122.4h14.9v82.3c0,15.3,16.1,28.5,26.2,34.9c4.2,2.6,13.2,3.8,17.4,3.8c7.4,0,16.4-3.5,21.5-9.2
		l143-158.4c6.7-7.5,11-18.2,11-29.5c0-11.5-3.6-22.2-10.1-29.4L1266.4,516.1z"/>
	<path id="XMLID_673_" class="st0" d="M1109,329.7c13.8-29.4,36.9-49.7,75.1-49.7h14.9v75.5c0,15.4,16.1,28.6,26.2,34.9
		c4.2,2.6,13.2,3.8,17.4,3.8c7.4,0,16.3-3.5,21.5-9.2l143-158.4c6.7-7.5,11-18.2,11-29.5c0-11.5-3.6-22.2-10.1-29.5L1266.3,9.2
		c-8.7-9.7-30.4-12.1-41.2-5.4C1215,10,1199,23.2,1199,38.7V125h-14.9c-68.8,0-130.7,48.7-165.4,123.3l-10.3,22.2l62.2,140.5
		L1109,329.7z"/>
	<path id="XMLID_672_" class="st0" d="M865.4,572.6c-14.7,31.4-42.1,50.9-75.1,50.9H42.1c0,0,20.6,87.3-30.2,139.5L0,780h790.3
		c65.3,0,128.7-46.7,165.7-125.9l9.9-23.1l-62.6-137L865.4,572.6z"/>
</g>
<use xlink:href="#New_Symbol"  width="1072" height="396.5" id="XMLID_65_" x="-518.5" y="-198.2" transform="matrix(0.2704 0 0 -0.2704 213.3575 200.8502)" style="overflow:visible;"/>
</svg>
