<?xml version="1.0" encoding="utf-8"?>
<!-- Generator: Adobe Illustrator 19.0.0, SVG Export Plug-In . SVG Version: 6.00 Build 0)  -->
<svg version="1.1" id="Layer_1" xmlns="http://www.w3.org/2000/svg" xmlns:xlink="http://www.w3.org/1999/xlink" x="0px" y="0px"
	 viewBox="414 214 1440 365" style="enable-background:new 414 214 1440 365;" xml:space="preserve">
<style type="text/css">
	.st0{enable-background:new    ;}
	.st1{fill:#FFFFFF;}
</style>
<rect id="XMLID_67_" x="414" y="214" width="1440" height="365"/>
<g class="st0">
	<path class="st1" d="M841.6,519.6c-0.7,0-1.3-0.2-1.8-0.6c-0.5-0.4-0.7-0.9-0.7-1.6c0-0.7,0.2-1.2,0.7-1.6c0.5-0.4,1.1-0.6,1.8-0.6
		c0.7,0,1.3,0.2,1.8,0.7c0.5,0.4,0.7,1,0.7,1.6c0,0.7-0.2,1.2-0.7,1.6C842.9,519.4,842.3,519.6,841.6,519.6z M843.9,535.1h-4.5
		l0.5-13.5h3.5L843.9,535.1z"/>
	<path class="st1" d="M865.4,529.5h-4.4v-8h-8.1v8h-4.4v-19.6h4.4v7.8h8.1v-7.8h4.4V529.5z"/>
	<path class="st1" d="M876.1,529.8c-2.3,0-4.2-0.7-5.5-2c-1.3-1.3-2-3.1-2-5.3c0-2.3,0.7-4.1,2.1-5.4c1.4-1.3,3.3-2,5.6-2
		c2.3,0,4.1,0.7,5.5,2c1.3,1.3,2,3,2,5.2c0,2.3-0.7,4.2-2,5.5C880.3,529.2,878.5,529.8,876.1,529.8z M876.2,518.5
		c-1,0-1.8,0.4-2.4,1.1c-0.6,0.7-0.8,1.7-0.8,3c0,2.7,1.1,4,3.3,4c2.1,0,3.1-1.4,3.1-4.1C879.3,519.8,878.3,518.5,876.2,518.5z"/>
	<path class="st1" d="M890.9,529.5h-4.3v-20.7h4.3V529.5z"/>
	<path class="st1" d="M906.2,529.5h-4.1v-2H902c-0.9,1.6-2.3,2.4-4.2,2.4c-1.4,0-2.4-0.4-3.2-1.2s-1.2-1.8-1.2-3.1
		c0-2.7,1.6-4.3,4.8-4.7l3.8-0.5c0-1.5-0.8-2.3-2.5-2.3c-1.7,0-3.3,0.5-4.8,1.5v-3.3c0.6-0.3,1.4-0.6,2.5-0.8c1-0.2,2-0.4,2.9-0.4
		c4,0,6,2,6,6V529.5z M902.1,523.8v-0.9l-2.5,0.3c-1.4,0.2-2.1,0.8-2.1,1.9c0,0.5,0.2,0.9,0.5,1.2s0.8,0.5,1.4,0.5
		c0.8,0,1.5-0.3,2-0.8C901.8,525.4,902.1,524.7,902.1,523.8z"/>
	<path class="st1" d="M912.3,529.8c-0.7,0-1.3-0.2-1.8-0.7c-0.5-0.4-0.7-1-0.7-1.6c0-0.7,0.2-1.2,0.7-1.6s1.1-0.6,1.8-0.6
		c0.7,0,1.3,0.2,1.8,0.6s0.7,1,0.7,1.6c0,0.7-0.2,1.2-0.7,1.6C913.7,529.6,913.1,529.8,912.3,529.8z M914.6,509.9l-0.5,13.5h-3.5
		l-0.5-13.5H914.6z"/>
	<path class="st1" d="M931.3,522.7v6.8h-4.4v-19.6h6.9c4.9,0,7.4,2.1,7.4,6.2c0,2-0.7,3.6-2.1,4.8c-1.4,1.2-3.3,1.8-5.7,1.8H931.3z
		 M931.3,513.3v6.1h1.7c2.4,0,3.5-1,3.5-3.1c0-2-1.2-3-3.5-3H931.3z"/>
	<path class="st1" d="M954.6,529.5h-4.1v-2h-0.1c-0.9,1.6-2.3,2.4-4.2,2.4c-1.4,0-2.4-0.4-3.2-1.2s-1.2-1.8-1.2-3.1
		c0-2.7,1.6-4.3,4.8-4.7l3.8-0.5c0-1.5-0.8-2.3-2.5-2.3c-1.7,0-3.3,0.5-4.8,1.5v-3.3c0.6-0.3,1.4-0.6,2.5-0.8c1-0.2,2-0.4,2.9-0.4
		c4,0,6,2,6,6V529.5z M950.5,523.8v-0.9l-2.5,0.3c-1.4,0.2-2.1,0.8-2.1,1.9c0,0.5,0.2,0.9,0.5,1.2s0.8,0.5,1.4,0.5
		c0.8,0,1.5-0.3,2-0.8C950.3,525.4,950.5,524.7,950.5,523.8z"/>
	<path class="st1" d="M967.2,519.4c-0.5-0.3-1.1-0.4-1.8-0.4c-0.9,0-1.7,0.3-2.2,1c-0.5,0.7-0.8,1.6-0.8,2.8v6.7H958v-14h4.3v2.6
		h0.1c0.7-1.9,1.9-2.8,3.7-2.8c0.5,0,0.8,0.1,1.1,0.2V519.4z"/>
	<path class="st1" d="M980.8,529.5h-4.1v-2h-0.1c-0.9,1.6-2.3,2.4-4.2,2.4c-1.4,0-2.4-0.4-3.2-1.2s-1.2-1.8-1.2-3.1
		c0-2.7,1.6-4.3,4.8-4.7l3.8-0.5c0-1.5-0.8-2.3-2.5-2.3c-1.7,0-3.3,0.5-4.8,1.5v-3.3c0.6-0.3,1.4-0.6,2.5-0.8c1-0.2,2-0.4,2.9-0.4
		c4,0,6,2,6,6V529.5z M976.8,523.8v-0.9l-2.5,0.3c-1.4,0.2-2.1,0.8-2.1,1.9c0,0.5,0.2,0.9,0.5,1.2s0.8,0.5,1.4,0.5
		c0.8,0,1.5-0.3,2-0.8C976.5,525.4,976.8,524.7,976.8,523.8z"/>
	<path class="st1" d="M1002.6,529c-1,0.6-2.4,0.8-4.2,0.8c-2.2,0-3.9-0.7-5.2-2c-1.3-1.3-2-3-2-5c0-2.4,0.7-4.3,2.1-5.6
		c1.4-1.4,3.3-2.1,5.7-2.1c1.6,0,2.8,0.2,3.6,0.7v3.7c-0.9-0.7-1.9-1-3-1c-1.2,0-2.2,0.4-2.9,1.1s-1.1,1.7-1.1,3
		c0,1.2,0.3,2.2,1,2.9c0.7,0.7,1.6,1.1,2.9,1.1c1.1,0,2.1-0.3,3.2-1V529z"/>
	<path class="st1" d="M1012.1,529.8c-2.3,0-4.2-0.7-5.5-2c-1.3-1.3-2-3.1-2-5.3c0-2.3,0.7-4.1,2.1-5.4c1.4-1.3,3.3-2,5.6-2
		c2.3,0,4.1,0.7,5.5,2c1.3,1.3,2,3,2,5.2c0,2.3-0.7,4.2-2,5.5C1016.3,529.2,1014.4,529.8,1012.1,529.8z M1012.2,518.5
		c-1,0-1.8,0.4-2.4,1.1c-0.6,0.7-0.8,1.7-0.8,3c0,2.7,1.1,4,3.3,4c2.1,0,3.1-1.4,3.1-4.1C1015.3,519.8,1014.3,518.5,1012.2,518.5z"
		/>
	<path class="st1" d="M1036,529.5h-4.3v-7.8c0-2.2-0.8-3.3-2.3-3.3c-0.7,0-1.4,0.3-1.8,0.9c-0.5,0.6-0.7,1.3-0.7,2.2v8h-4.3v-14h4.3
		v2.2h0.1c1-1.7,2.5-2.6,4.5-2.6c3.1,0,4.6,1.9,4.6,5.8V529.5z"/>
	<path class="st1" d="M1047.9,529.3c-0.6,0.3-1.6,0.5-2.9,0.5c-3,0-4.6-1.6-4.6-4.7v-6.4h-2.3v-3.2h2.3v-3l4.3-1.2v4.3h3.1v3.2h-3.1
		v5.7c0,1.5,0.6,2.2,1.7,2.2c0.5,0,0.9-0.1,1.4-0.4V529.3z"/>
	<path class="st1" d="M1052.5,513.3c-0.7,0-1.3-0.2-1.8-0.6s-0.7-1-0.7-1.6c0-0.6,0.2-1.2,0.7-1.6s1.1-0.6,1.8-0.6
		c0.7,0,1.3,0.2,1.8,0.6c0.5,0.4,0.7,0.9,0.7,1.6c0,0.7-0.2,1.2-0.7,1.6C1053.9,513.1,1053.3,513.3,1052.5,513.3z M1054.7,529.5
		h-4.3v-14h4.3V529.5z"/>
	<path class="st1" d="M1071.8,529.5h-4.3v-7.8c0-2.2-0.8-3.3-2.3-3.3c-0.7,0-1.4,0.3-1.8,0.9c-0.5,0.6-0.7,1.3-0.7,2.2v8h-4.3v-14
		h4.3v2.2h0.1c1-1.7,2.5-2.6,4.5-2.6c3.1,0,4.6,1.9,4.6,5.8V529.5z"/>
	<path class="st1" d="M1088.5,529.5h-4.3v-2.1h-0.1c-1.1,1.6-2.5,2.5-4.3,2.5c-3.2,0-4.9-2-4.9-5.9v-8.4h4.3v8.1c0,2,0.8,3,2.4,3
		c0.8,0,1.4-0.3,1.9-0.8s0.7-1.3,0.7-2.2v-8h4.3V529.5z"/>
	<path class="st1" d="M1103.8,529.5h-4.1v-2h-0.1c-0.9,1.6-2.3,2.4-4.2,2.4c-1.4,0-2.4-0.4-3.2-1.2s-1.2-1.8-1.2-3.1
		c0-2.7,1.6-4.3,4.8-4.7l3.8-0.5c0-1.5-0.8-2.3-2.5-2.3c-1.7,0-3.3,0.5-4.8,1.5v-3.3c0.6-0.3,1.4-0.6,2.5-0.8c1-0.2,2-0.4,2.9-0.4
		c4,0,6,2,6,6V529.5z M1099.8,523.8v-0.9l-2.5,0.3c-1.4,0.2-2.1,0.8-2.1,1.9c0,0.5,0.2,0.9,0.5,1.2s0.8,0.5,1.4,0.5
		c0.8,0,1.5-0.3,2-0.8C1099.5,525.4,1099.8,524.7,1099.8,523.8z"/>
	<path class="st1" d="M1116.4,519.4c-0.5-0.3-1.1-0.4-1.8-0.4c-0.9,0-1.7,0.3-2.2,1c-0.5,0.7-0.8,1.6-0.8,2.8v6.7h-4.3v-14h4.3v2.6
		h0.1c0.7-1.9,1.9-2.8,3.7-2.8c0.5,0,0.8,0.1,1.1,0.2V519.4z"/>
	<path class="st1" d="M1120.2,526l-2,6.9h-3.4l1.4-6.9H1120.2z"/>
	<path class="st1" d="M1133.7,513.3c-0.7,0-1.3-0.2-1.8-0.6s-0.7-1-0.7-1.6c0-0.6,0.2-1.2,0.7-1.6s1.1-0.6,1.8-0.6
		c0.7,0,1.3,0.2,1.8,0.6s0.7,0.9,0.7,1.6c0,0.7-0.2,1.2-0.7,1.6S1134.4,513.3,1133.7,513.3z M1135.8,529.5h-4.3v-14h4.3V529.5z"/>
	<path class="st1" d="M1152.9,529.5h-4.3v-7.8c0-2.2-0.8-3.3-2.3-3.3c-0.7,0-1.4,0.3-1.8,0.9s-0.7,1.3-0.7,2.2v8h-4.3v-14h4.3v2.2
		h0.1c1-1.7,2.5-2.6,4.5-2.6c3.1,0,4.6,1.9,4.6,5.8V529.5z"/>
	<path class="st1" d="M1170.1,527.9c0,2.6-0.8,4.6-2.3,6s-3.7,2.1-6.5,2.1c-1.9,0-3.4-0.3-4.5-0.8v-3.6c1.4,0.8,2.9,1.3,4.4,1.3
		c1.5,0,2.6-0.4,3.4-1.2s1.2-1.8,1.2-3.1v-1.1h-0.1c-1,1.6-2.4,2.4-4.4,2.4c-1.8,0-3.2-0.6-4.3-1.9s-1.6-2.9-1.6-5.1
		c0-2.4,0.6-4.3,1.8-5.6s2.7-2.1,4.6-2.1c1.7,0,3,0.7,3.8,2h0.1v-1.6h4.3V527.9z M1165.8,522.8v-1.1c0-0.9-0.3-1.6-0.8-2.3
		s-1.2-0.9-2-0.9c-1,0-1.7,0.4-2.3,1.1s-0.8,1.8-0.8,3.2c0,1.2,0.3,2.1,0.8,2.8s1.2,1,2.1,1c0.9,0,1.6-0.3,2.2-1
		S1165.8,523.9,1165.8,522.8z"/>
	<path class="st1" d="M1182.8,519.4c-0.5-0.3-1.1-0.4-1.8-0.4c-0.9,0-1.7,0.3-2.2,1s-0.8,1.6-0.8,2.8v6.7h-4.3v-14h4.3v2.6h0.1
		c0.7-1.9,1.9-2.8,3.7-2.8c0.5,0,0.8,0.1,1.1,0.2V519.4z"/>
	<path class="st1" d="M1197.3,523.7h-9.1c0.1,2,1.4,3,3.8,3c1.5,0,2.9-0.4,4.1-1.1v3.1c-1.3,0.7-3,1-5,1c-2.3,0-4-0.6-5.3-1.9
		s-1.9-3-1.9-5.2c0-2.3,0.7-4.2,2-5.5s3-2,5-2c2,0,3.6,0.6,4.7,1.8s1.7,2.9,1.7,4.9V523.7z M1193.3,521.1c0-2-0.8-3-2.4-3
		c-0.7,0-1.3,0.3-1.8,0.9s-0.8,1.3-0.9,2.1H1193.3z"/>
	<path class="st1" d="M1199,529.1v-3.5c0.7,0.4,1.4,0.7,2.1,1s1.4,0.3,2,0.3c0.8,0,1.4-0.1,1.8-0.3s0.7-0.5,0.7-1
		c0-0.3-0.1-0.5-0.3-0.7s-0.5-0.3-0.8-0.5s-0.7-0.3-1-0.4s-0.7-0.2-1.1-0.4c-0.6-0.2-1-0.4-1.5-0.7s-0.8-0.5-1.1-0.8
		s-0.5-0.7-0.7-1.1s-0.2-0.9-0.2-1.5c0-0.8,0.2-1.5,0.5-2s0.8-1,1.4-1.4s1.2-0.6,2-0.8s1.5-0.3,2.3-0.3c0.6,0,1.2,0,1.9,0.1
		s1.3,0.2,1.9,0.4v3.3c-0.5-0.3-1.1-0.6-1.8-0.7s-1.2-0.2-1.8-0.2c-0.3,0-0.5,0-0.8,0.1s-0.5,0.1-0.7,0.2s-0.3,0.2-0.5,0.4
		s-0.2,0.3-0.2,0.5c0,0.3,0.1,0.5,0.2,0.7s0.4,0.3,0.6,0.5s0.6,0.3,0.9,0.4s0.6,0.2,1,0.3c0.6,0.2,1.1,0.4,1.6,0.7s0.9,0.5,1.2,0.8
		s0.6,0.7,0.8,1.1s0.3,0.9,0.3,1.5c0,0.8-0.2,1.5-0.5,2.1s-0.8,1.1-1.4,1.4s-1.3,0.6-2.1,0.8s-1.6,0.3-2.4,0.3
		C1201.7,529.8,1200.3,529.6,1199,529.1z"/>
	<path class="st1" d="M1223.8,529.5h-4.1v-2h-0.1c-0.9,1.6-2.3,2.4-4.2,2.4c-1.4,0-2.4-0.4-3.2-1.2s-1.2-1.8-1.2-3.1
		c0-2.7,1.6-4.3,4.8-4.7l3.8-0.5c0-1.5-0.8-2.3-2.5-2.3c-1.7,0-3.3,0.5-4.8,1.5v-3.3c0.6-0.3,1.4-0.6,2.5-0.8s2-0.4,2.9-0.4
		c4,0,6,2,6,6V529.5z M1219.8,523.8v-0.9l-2.5,0.3c-1.4,0.2-2.1,0.8-2.1,1.9c0,0.5,0.2,0.9,0.5,1.2s0.8,0.5,1.4,0.5
		c0.8,0,1.5-0.3,2-0.8S1219.8,524.7,1219.8,523.8z"/>
</g>
<g class="st0">
	<path class="st1" d="M847.3,562.9c-0.6,0.3-1.6,0.5-2.9,0.5c-3,0-4.6-1.6-4.6-4.7v-6.4h-2.3v-3.2h2.3v-3l4.3-1.2v4.3h3.1v3.2h-3.1
		v5.7c0,1.5,0.6,2.2,1.7,2.2c0.5,0,0.9-0.1,1.4-0.4V562.9z"/>
	<path class="st1" d="M863,563.1h-4.3V561h-0.1c-1.1,1.6-2.5,2.5-4.3,2.5c-3.2,0-4.9-2-4.9-5.9v-8.4h4.3v8.1c0,2,0.8,3,2.4,3
		c0.8,0,1.4-0.3,1.9-0.8s0.7-1.3,0.7-2.2v-8h4.3V563.1z"/>
	<path class="st1" d="M887.7,563.1h-4.3V561h-0.1c-1.1,1.6-2.5,2.5-4.3,2.5c-3.2,0-4.9-2-4.9-5.9v-8.4h4.3v8.1c0,2,0.8,3,2.4,3
		c0.8,0,1.4-0.3,1.9-0.8s0.7-1.3,0.7-2.2v-8h4.3V563.1z"/>
	<path class="st1" d="M890.4,562.7v-3.5c0.7,0.4,1.4,0.7,2.1,1c0.7,0.2,1.4,0.3,2,0.3c0.8,0,1.4-0.1,1.8-0.3c0.4-0.2,0.7-0.5,0.7-1
		c0-0.3-0.1-0.5-0.3-0.7c-0.2-0.2-0.5-0.3-0.8-0.5s-0.7-0.3-1-0.4c-0.4-0.1-0.7-0.2-1.1-0.4c-0.6-0.2-1-0.4-1.5-0.7
		s-0.8-0.5-1.1-0.8s-0.5-0.7-0.7-1.1s-0.2-0.9-0.2-1.5c0-0.8,0.2-1.5,0.5-2s0.8-1,1.4-1.4c0.6-0.4,1.2-0.6,2-0.8
		c0.7-0.2,1.5-0.3,2.3-0.3c0.6,0,1.2,0,1.9,0.1c0.6,0.1,1.3,0.2,1.9,0.4v3.3c-0.5-0.3-1.1-0.6-1.8-0.7c-0.6-0.2-1.2-0.2-1.8-0.2
		c-0.3,0-0.5,0-0.8,0.1c-0.3,0-0.5,0.1-0.7,0.2s-0.3,0.2-0.5,0.4s-0.2,0.3-0.2,0.5c0,0.3,0.1,0.5,0.2,0.7s0.4,0.3,0.6,0.5
		c0.3,0.1,0.6,0.3,0.9,0.4c0.3,0.1,0.6,0.2,1,0.3c0.6,0.2,1.1,0.4,1.6,0.7s0.9,0.5,1.2,0.8c0.3,0.3,0.6,0.7,0.8,1.1s0.3,0.9,0.3,1.5
		c0,0.8-0.2,1.5-0.5,2.1c-0.4,0.6-0.8,1.1-1.4,1.4c-0.6,0.4-1.3,0.6-2.1,0.8s-1.6,0.3-2.4,0.3C893.1,563.4,891.7,563.2,890.4,562.7z
		"/>
	<path class="st1" d="M916.9,563.1h-4.3V561h-0.1c-1.1,1.6-2.5,2.5-4.3,2.5c-3.2,0-4.9-2-4.9-5.9v-8.4h4.3v8.1c0,2,0.8,3,2.4,3
		c0.8,0,1.4-0.3,1.9-0.8s0.7-1.3,0.7-2.2v-8h4.3V563.1z"/>
	<path class="st1" d="M932.2,563.1h-4.1v-2h-0.1c-0.9,1.6-2.3,2.4-4.2,2.4c-1.4,0-2.4-0.4-3.2-1.2s-1.2-1.8-1.2-3.1
		c0-2.7,1.6-4.3,4.8-4.7l3.8-0.5c0-1.5-0.8-2.3-2.5-2.3c-1.7,0-3.3,0.5-4.8,1.5v-3.3c0.6-0.3,1.4-0.6,2.5-0.8c1-0.2,2-0.4,2.9-0.4
		c4,0,6,2,6,6V563.1z M928.2,557.4v-0.9l-2.5,0.3c-1.4,0.2-2.1,0.8-2.1,1.9c0,0.5,0.2,0.9,0.5,1.2s0.8,0.5,1.4,0.5
		c0.8,0,1.5-0.3,2-0.8C927.9,559,928.2,558.3,928.2,557.4z"/>
	<path class="st1" d="M944.8,553c-0.5-0.3-1.1-0.4-1.8-0.4c-0.9,0-1.7,0.3-2.2,1c-0.5,0.7-0.8,1.6-0.8,2.8v6.7h-4.3v-14h4.3v2.6h0.1
		c0.7-1.9,1.9-2.8,3.7-2.8c0.5,0,0.8,0.1,1.1,0.2V553z"/>
	<path class="st1" d="M949.1,546.9c-0.7,0-1.3-0.2-1.8-0.6s-0.7-1-0.7-1.6c0-0.6,0.2-1.2,0.7-1.6s1.1-0.6,1.8-0.6
		c0.7,0,1.3,0.2,1.8,0.6c0.5,0.4,0.7,0.9,0.7,1.6c0,0.7-0.2,1.2-0.7,1.6C950.4,546.7,949.8,546.9,949.1,546.9z M951.2,563.1h-4.3
		v-14h4.3V563.1z"/>
	<path class="st1" d="M961.5,563.4c-2.3,0-4.2-0.7-5.5-2c-1.3-1.3-2-3.1-2-5.3c0-2.3,0.7-4.1,2.1-5.4c1.4-1.3,3.3-2,5.6-2
		c2.3,0,4.1,0.7,5.5,2c1.3,1.3,2,3,2,5.2c0,2.3-0.7,4.2-2,5.5C965.8,562.8,963.9,563.4,961.5,563.4z M961.6,552.1
		c-1,0-1.8,0.4-2.4,1.1c-0.6,0.7-0.8,1.7-0.8,3c0,2.7,1.1,4,3.3,4c2.1,0,3.1-1.4,3.1-4.1C964.8,553.4,963.7,552.1,961.6,552.1z"/>
	<path class="st1" d="M986.4,563.4c-2.3,0-4.2-0.7-5.5-2c-1.3-1.3-2-3.1-2-5.3c0-2.3,0.7-4.1,2.1-5.4c1.4-1.3,3.3-2,5.6-2
		c2.3,0,4.1,0.7,5.5,2c1.3,1.3,2,3,2,5.2c0,2.3-0.7,4.2-2,5.5C990.6,562.8,988.7,563.4,986.4,563.4z M986.5,552.1
		c-1,0-1.8,0.4-2.4,1.1c-0.6,0.7-0.8,1.7-0.8,3c0,2.7,1.1,4,3.3,4c2.1,0,3.1-1.4,3.1-4.1C989.6,553.4,988.6,552.1,986.5,552.1z"/>
	<path class="st1" d="M1017.1,557.3h-9.1c0.1,2,1.4,3,3.8,3c1.5,0,2.9-0.4,4.1-1.1v3.1c-1.3,0.7-3,1-5,1c-2.3,0-4-0.6-5.3-1.9
		c-1.2-1.3-1.9-3-1.9-5.2c0-2.3,0.7-4.2,2-5.5c1.3-1.4,3-2,5-2c2,0,3.6,0.6,4.7,1.8c1.1,1.2,1.7,2.9,1.7,4.9V557.3z M1013.1,554.7
		c0-2-0.8-3-2.4-3c-0.7,0-1.3,0.3-1.8,0.9s-0.8,1.3-0.9,2.1H1013.1z"/>
	<path class="st1" d="M1027.3,557.1h-7.5v-3h7.5V557.1z"/>
	<path class="st1" d="M1053.2,563.1h-4.3v-8c0-2-0.7-3-2.2-3c-0.7,0-1.3,0.3-1.7,0.9c-0.4,0.6-0.7,1.4-0.7,2.3v7.8h-4.3V555
		c0-2-0.7-3-2.2-3c-0.7,0-1.3,0.3-1.8,0.9c-0.4,0.6-0.7,1.4-0.7,2.4v7.8h-4.3v-14h4.3v2.2h0.1c0.4-0.7,1.1-1.4,1.9-1.8
		s1.7-0.7,2.6-0.7c2,0,3.3,0.9,4.1,2.6c1.1-1.7,2.6-2.6,4.7-2.6c3,0,4.6,1.9,4.6,5.6V563.1z"/>
	<path class="st1" d="M1068.3,563.1h-4.1v-2h-0.1c-0.9,1.6-2.3,2.4-4.2,2.4c-1.4,0-2.4-0.4-3.2-1.2s-1.2-1.8-1.2-3.1
		c0-2.7,1.6-4.3,4.8-4.7l3.8-0.5c0-1.5-0.8-2.3-2.5-2.3c-1.7,0-3.3,0.5-4.8,1.5v-3.3c0.6-0.3,1.4-0.6,2.5-0.8c1-0.2,2-0.4,2.9-0.4
		c4,0,6,2,6,6V563.1z M1064.2,557.4v-0.9l-2.5,0.3c-1.4,0.2-2.1,0.8-2.1,1.9c0,0.5,0.2,0.9,0.5,1.2s0.8,0.5,1.4,0.5
		c0.8,0,1.5-0.3,2-0.8C1064,559,1064.2,558.3,1064.2,557.4z"/>
	<path class="st1" d="M1073.9,546.9c-0.7,0-1.3-0.2-1.8-0.6s-0.7-1-0.7-1.6c0-0.6,0.2-1.2,0.7-1.6s1.1-0.6,1.8-0.6
		c0.7,0,1.3,0.2,1.8,0.6c0.5,0.4,0.7,0.9,0.7,1.6c0,0.7-0.2,1.2-0.7,1.6C1075.2,546.7,1074.6,546.9,1073.9,546.9z M1076,563.1h-4.3
		v-14h4.3V563.1z"/>
	<path class="st1" d="M1084,563.1h-4.3v-20.7h4.3V563.1z"/>
</g>
</svg>
