<?xml version="1.0" encoding="utf-8"?>
<!-- Generator: Adobe Illustrator 19.0.0, SVG Export Plug-In . SVG Version: 6.00 Build 0)  -->
<svg version="1.1" id="Layer_1" xmlns="http://www.w3.org/2000/svg" xmlns:xlink="http://www.w3.org/1999/xlink" x="0px" y="0px"
	 viewBox="0 0 48.1 35.7" style="enable-background:new 0 0 48.1 35.7;" xml:space="preserve">
<style type="text/css">
	.st0{fill:none;}
	.st1{fill:#808285;}
</style>
<g id="XMLID_46_">
	<path id="XMLID_100_" class="st0" d="M14.6,18.3c0-5.2,4.3-9.5,9.5-9.5c1.3,0,2.5,0.3,3.6,0.7l2.3-2c-1.9-0.5-3.9-0.8-6-0.8
		c-8.4,0-16.3,4.4-20.7,11.5c1.6,2.6,3.7,4.8,6,6.6l5.4-4.5C14.6,19.7,14.6,19,14.6,18.3z"/>
	<path id="XMLID_99_" class="st0" d="M28.6,18.3c0,2.5-2,4.5-4.5,4.5c-0.4,0-0.8-0.1-1.1-0.2l-1.8,1.5c0.9,0.4,1.9,0.7,2.9,0.7
		c3.6,0,6.5-2.9,6.5-6.5c0-0.6-0.1-1.3-0.3-1.9l-1.8,1.5C28.5,18,28.6,18.2,28.6,18.3z"/>
	<path id="XMLID_98_" class="st0" d="M33.6,18.3c0,5.2-4.3,9.5-9.5,9.5c-2,0-3.8-0.6-5.3-1.7L16,28.4c2.6,0.9,5.3,1.4,8.1,1.4
		c8.4,0,16.3-4.4,20.7-11.5c-1.9-3.1-4.6-5.7-7.6-7.6l-4.5,3.8C33.3,15.6,33.6,16.9,33.6,18.3z"/>
	<path id="XMLID_97_" class="st0" d="M24.1,11.8c-3.5,0-6.3,2.7-6.5,6.2l7.3-6.1C24.6,11.8,24.4,11.8,24.1,11.8z"/>
	<path id="XMLID_96_" class="st1" d="M3.3,18.3C7.8,11.2,15.7,6.8,24.1,6.8c2,0,4,0.3,6,0.8l2.8-2.3c-2.8-0.9-5.7-1.5-8.7-1.5
		C14.4,3.8,5.2,9,0.2,17.5c-0.3,0.5-0.3,1.1,0,1.5c1.8,3,4.1,5.6,6.8,7.8l2.3-2C7,23.1,4.9,20.9,3.3,18.3z"/>
	<path id="XMLID_95_" class="st1" d="M47.9,17.5c-2.1-3.6-5-6.6-8.3-8.9l-2.4,2c3,1.9,5.6,4.5,7.6,7.6c-4.4,7.1-12.4,11.5-20.7,11.5
		c-2.8,0-5.5-0.5-8.1-1.4l-2.6,2.2c3.3,1.4,7,2.2,10.7,2.2c9.7,0,18.8-5.3,23.8-13.7C48.2,18.6,48.2,18,47.9,17.5z"/>
	<path id="XMLID_94_" class="st1" d="M30.6,18.3c0,3.6-2.9,6.5-6.5,6.5c-1.1,0-2.1-0.2-2.9-0.7l-2.4,2c1.5,1,3.4,1.7,5.3,1.7
		c5.2,0,9.5-4.3,9.5-9.5c0-1.4-0.3-2.7-0.8-3.9l-2.4,2C30.5,17,30.6,17.6,30.6,18.3z"/>
	<path id="XMLID_112_" class="st1" d="M24.1,11.8c0.3,0,0.6,0,0.8,0.1l2.8-2.3c-1.1-0.5-2.3-0.7-3.6-0.7c-5.2,0-9.5,4.3-9.5,9.5
		c0,0.7,0.1,1.4,0.2,2l2.8-2.3C17.7,14.5,20.5,11.8,24.1,11.8z"/>
	<path id="XMLID_115_" class="st1" d="M24.1,22.8c2.5,0,4.5-2,4.5-4.5c0-0.1,0-0.2,0-0.4l-5.6,4.7C23.3,22.7,23.7,22.8,24.1,22.8z"
		/>
	<polygon id="XMLID_50_" class="st1" points="42.2,0 34.9,6.1 32.3,8.2 29.6,10.5 27.2,12.5 25.4,14 23.6,15.6 20.9,17.8 19.6,18.9 
		17.9,20.3 15.5,22.3 11.1,26 8.7,28 2.3,33.4 4.2,35.7 11.4,29.6 13.9,27.6 17.2,24.8 19.5,22.9 21,21.6 23.4,19.6 25.5,17.9 
		27.9,15.9 29.4,14.6 31.7,12.7 35.4,9.6 37.8,7.5 44.1,2.3 	"/>
</g>
</svg>
