<?xml version="1.0" encoding="utf-8"?>
<!-- Generator: Adobe Illustrator 19.0.0, SVG Export Plug-In . SVG Version: 6.00 Build 0)  -->
<svg version="1.1" id="Layer_1" xmlns="http://www.w3.org/2000/svg" xmlns:xlink="http://www.w3.org/1999/xlink" x="0px" y="0px"
	 viewBox="0 0 48.1 29" style="enable-background:new 0 0 48.1 29;" xml:space="preserve">
<style type="text/css">
	.st0{fill:#808285;}
</style>
<g id="XMLID_46_">
	<path id="XMLID_162_" class="st0" d="M47.9,13.7C42.9,5.3,33.8,0,24.1,0C14.4,0,5.2,5.3,0.2,13.7c-0.3,0.5-0.3,1.1,0,1.5
		C5.2,23.7,14.4,29,24.1,29c9.7,0,18.8-5.3,23.8-13.7C48.2,14.8,48.2,14.2,47.9,13.7z M44.8,14.5C40.4,21.6,32.4,26,24.1,26
		c-8.4,0-16.3-4.4-20.7-11.5C7.8,7.4,15.7,3,24.1,3C32.4,3,40.4,7.4,44.8,14.5z"/>
	<path id="XMLID_165_" class="st0" d="M24.1,5c-5.2,0-9.5,4.3-9.5,9.5s4.3,9.5,9.5,9.5s9.5-4.3,9.5-9.5S29.3,5,24.1,5z M30.6,14.5
		c0,3.6-2.9,6.5-6.5,6.5s-6.5-2.9-6.5-6.5S20.4,8,24.1,8S30.6,10.9,30.6,14.5z"/>
	<path id="XMLID_166_" class="st0" d="M24.1,10h-0.5v3h0.5c0.8,0,1.5,0.7,1.5,1.5S24.9,16,24.1,16c-0.8,0-1.5-0.7-1.5-1.5V14h-3v0.5
		c0,2.5,2,4.5,4.5,4.5c2.5,0,4.5-2,4.5-4.5S26.6,10,24.1,10z"/>
</g>
</svg>
